<mxfile host="Electron" modified="2023-05-29T11:49:36.549Z" agent="Mozilla/5.0 (Macintosh; Intel Mac OS X 10_15_7) AppleWebKit/537.36 (KHTML, like Gecko) draw.io/21.2.8 Chrome/112.0.5615.165 Electron/24.2.0 Safari/537.36" etag="o_p7MwS2rvj53jBmlzZP" version="21.2.8" type="device">
  <diagram name="Pagina-1" id="l3BLezwUaTII_HzbWaRt">
    <mxGraphModel dx="1020" dy="545" grid="1" gridSize="10" guides="1" tooltips="1" connect="1" arrows="1" fold="1" page="1" pageScale="1" pageWidth="827" pageHeight="1169" math="0" shadow="0">
      <root>
        <mxCell id="0" />
        <mxCell id="1" parent="0" />
        <mxCell id="72sK_H_ywsmvFICcp4cR-1" style="edgeStyle=orthogonalEdgeStyle;rounded=0;orthogonalLoop=1;jettySize=auto;html=1;exitX=0.5;exitY=0;exitDx=0;exitDy=0;entryX=0;entryY=0.5;entryDx=0;entryDy=0;endArrow=none;endFill=0;" parent="1" source="72sK_H_ywsmvFICcp4cR-2" target="72sK_H_ywsmvFICcp4cR-20" edge="1">
          <mxGeometry relative="1" as="geometry" />
        </mxCell>
        <mxCell id="72sK_H_ywsmvFICcp4cR-2" value="Utente" style="rounded=0;whiteSpace=wrap;html=1;" parent="1" vertex="1">
          <mxGeometry x="101" y="120" width="100" height="50" as="geometry" />
        </mxCell>
        <mxCell id="72sK_H_ywsmvFICcp4cR-3" style="edgeStyle=orthogonalEdgeStyle;rounded=0;orthogonalLoop=1;jettySize=auto;html=1;exitX=0.5;exitY=0;exitDx=0;exitDy=0;entryX=1;entryY=0.5;entryDx=0;entryDy=0;endArrow=none;endFill=0;" parent="1" source="72sK_H_ywsmvFICcp4cR-4" target="72sK_H_ywsmvFICcp4cR-20" edge="1">
          <mxGeometry relative="1" as="geometry" />
        </mxCell>
        <mxCell id="72sK_H_ywsmvFICcp4cR-4" value="Spedizione" style="rounded=0;whiteSpace=wrap;html=1;" parent="1" vertex="1">
          <mxGeometry x="611" y="118.75" width="100" height="50" as="geometry" />
        </mxCell>
        <mxCell id="72sK_H_ywsmvFICcp4cR-5" value="Ordine" style="rounded=0;whiteSpace=wrap;html=1;" parent="1" vertex="1">
          <mxGeometry x="611" y="288.75" width="100" height="50" as="geometry" />
        </mxCell>
        <mxCell id="72sK_H_ywsmvFICcp4cR-6" style="edgeStyle=orthogonalEdgeStyle;rounded=0;orthogonalLoop=1;jettySize=auto;html=1;exitX=0.5;exitY=0;exitDx=0;exitDy=0;entryX=0.5;entryY=1;entryDx=0;entryDy=0;endArrow=none;endFill=0;" parent="1" target="72sK_H_ywsmvFICcp4cR-16" edge="1">
          <mxGeometry relative="1" as="geometry">
            <mxPoint x="390" y="295" as="sourcePoint" />
            <Array as="points">
              <mxPoint x="395" y="295" />
            </Array>
          </mxGeometry>
        </mxCell>
        <mxCell id="72sK_H_ywsmvFICcp4cR-7" value="Carrello" style="rounded=0;whiteSpace=wrap;html=1;" parent="1" vertex="1">
          <mxGeometry x="340" y="125" width="100" height="50" as="geometry" />
        </mxCell>
        <mxCell id="72sK_H_ywsmvFICcp4cR-8" value="Magazzino" style="rounded=0;whiteSpace=wrap;html=1;" parent="1" vertex="1">
          <mxGeometry x="101" y="291.25" width="100" height="50" as="geometry" />
        </mxCell>
        <mxCell id="72sK_H_ywsmvFICcp4cR-9" style="edgeStyle=orthogonalEdgeStyle;rounded=0;orthogonalLoop=1;jettySize=auto;html=1;exitX=0.5;exitY=1;exitDx=0;exitDy=0;entryX=0.5;entryY=0;entryDx=0;entryDy=0;endArrow=none;endFill=0;" parent="1" target="72sK_H_ywsmvFICcp4cR-16" edge="1">
          <mxGeometry relative="1" as="geometry">
            <mxPoint x="390" y="175" as="sourcePoint" />
          </mxGeometry>
        </mxCell>
        <mxCell id="72sK_H_ywsmvFICcp4cR-10" value="Prodotto" style="rounded=0;whiteSpace=wrap;html=1;" parent="1" vertex="1">
          <mxGeometry x="340" y="290" width="100" height="50" as="geometry" />
        </mxCell>
        <mxCell id="72sK_H_ywsmvFICcp4cR-12" value="situato" style="rhombus;whiteSpace=wrap;html=1;" parent="1" vertex="1">
          <mxGeometry x="245" y="292.5" width="50" height="47.5" as="geometry" />
        </mxCell>
        <mxCell id="72sK_H_ywsmvFICcp4cR-13" value="" style="endArrow=none;html=1;rounded=0;exitX=1;exitY=0.5;exitDx=0;exitDy=0;entryX=0;entryY=0.5;entryDx=0;entryDy=0;" parent="1" source="72sK_H_ywsmvFICcp4cR-12" target="72sK_H_ywsmvFICcp4cR-10" edge="1">
          <mxGeometry width="50" height="50" relative="1" as="geometry">
            <mxPoint x="331" y="220" as="sourcePoint" />
            <mxPoint x="381" y="170" as="targetPoint" />
          </mxGeometry>
        </mxCell>
        <mxCell id="72sK_H_ywsmvFICcp4cR-14" value="" style="endArrow=none;html=1;rounded=0;exitX=1;exitY=0.5;exitDx=0;exitDy=0;entryX=0;entryY=0.5;entryDx=0;entryDy=0;" parent="1" source="72sK_H_ywsmvFICcp4cR-8" target="72sK_H_ywsmvFICcp4cR-12" edge="1">
          <mxGeometry width="50" height="50" relative="1" as="geometry">
            <mxPoint x="201" y="274" as="sourcePoint" />
            <mxPoint x="261" y="210" as="targetPoint" />
          </mxGeometry>
        </mxCell>
        <mxCell id="72sK_H_ywsmvFICcp4cR-15" value="procedimento" style="rhombus;whiteSpace=wrap;html=1;" parent="1" vertex="1">
          <mxGeometry x="490" y="220" width="100" height="47.5" as="geometry" />
        </mxCell>
        <mxCell id="72sK_H_ywsmvFICcp4cR-16" value="contenuto" style="rhombus;whiteSpace=wrap;html=1;" parent="1" vertex="1">
          <mxGeometry x="350" y="207.5" width="90" height="47.5" as="geometry" />
        </mxCell>
        <mxCell id="72sK_H_ywsmvFICcp4cR-17" style="edgeStyle=orthogonalEdgeStyle;rounded=0;orthogonalLoop=1;jettySize=auto;html=1;exitX=0.5;exitY=0;exitDx=0;exitDy=0;entryX=0.5;entryY=1;entryDx=0;entryDy=0;endArrow=none;endFill=0;" parent="1" target="72sK_H_ywsmvFICcp4cR-19" edge="1">
          <mxGeometry relative="1" as="geometry">
            <mxPoint x="661" y="288.75" as="sourcePoint" />
            <Array as="points">
              <mxPoint x="661" y="268.75" />
              <mxPoint x="661" y="268.75" />
            </Array>
          </mxGeometry>
        </mxCell>
        <mxCell id="72sK_H_ywsmvFICcp4cR-18" style="edgeStyle=orthogonalEdgeStyle;rounded=0;orthogonalLoop=1;jettySize=auto;html=1;exitX=0.5;exitY=1;exitDx=0;exitDy=0;entryX=0.5;entryY=0;entryDx=0;entryDy=0;endArrow=none;endFill=0;" parent="1" target="72sK_H_ywsmvFICcp4cR-19" edge="1">
          <mxGeometry relative="1" as="geometry">
            <mxPoint x="661" y="168.75" as="sourcePoint" />
          </mxGeometry>
        </mxCell>
        <mxCell id="72sK_H_ywsmvFICcp4cR-19" value="spedito" style="rhombus;whiteSpace=wrap;html=1;" parent="1" vertex="1">
          <mxGeometry x="636" y="201.25" width="50" height="47.5" as="geometry" />
        </mxCell>
        <mxCell id="72sK_H_ywsmvFICcp4cR-20" value="destinatario" style="rhombus;whiteSpace=wrap;html=1;" parent="1" vertex="1">
          <mxGeometry x="330" y="20" width="100" height="47.5" as="geometry" />
        </mxCell>
        <mxCell id="72sK_H_ywsmvFICcp4cR-28" value="" style="endArrow=none;html=1;rounded=0;exitX=1;exitY=0.5;exitDx=0;exitDy=0;entryX=0;entryY=0.5;entryDx=0;entryDy=0;" parent="1" source="72sK_H_ywsmvFICcp4cR-7" target="72sK_H_ywsmvFICcp4cR-15" edge="1">
          <mxGeometry width="50" height="50" relative="1" as="geometry">
            <mxPoint x="471" y="110.5" as="sourcePoint" />
            <mxPoint x="526" y="179.5" as="targetPoint" />
          </mxGeometry>
        </mxCell>
        <mxCell id="72sK_H_ywsmvFICcp4cR-29" value="" style="endArrow=none;html=1;rounded=0;exitX=1;exitY=0.5;exitDx=0;exitDy=0;entryX=0;entryY=0.5;entryDx=0;entryDy=0;" parent="1" source="72sK_H_ywsmvFICcp4cR-15" target="72sK_H_ywsmvFICcp4cR-70" edge="1">
          <mxGeometry width="50" height="50" relative="1" as="geometry">
            <mxPoint x="526" y="227.5" as="sourcePoint" />
            <mxPoint x="546" y="312.5" as="targetPoint" />
          </mxGeometry>
        </mxCell>
        <mxCell id="72sK_H_ywsmvFICcp4cR-30" value="" style="endArrow=none;html=1;rounded=0;startArrow=oval;startFill=1;" parent="1" edge="1">
          <mxGeometry width="50" height="50" relative="1" as="geometry">
            <mxPoint x="81" y="124" as="sourcePoint" />
            <mxPoint x="101" y="124" as="targetPoint" />
          </mxGeometry>
        </mxCell>
        <mxCell id="72sK_H_ywsmvFICcp4cR-31" value="username" style="text;html=1;strokeColor=none;fillColor=none;align=center;verticalAlign=middle;whiteSpace=wrap;rounded=0;imageAspect=1;fontSize=10;" parent="1" vertex="1">
          <mxGeometry x="36" y="120" width="30" height="10" as="geometry" />
        </mxCell>
        <mxCell id="72sK_H_ywsmvFICcp4cR-32" value="" style="endArrow=none;html=1;rounded=0;startArrow=oval;startFill=0;" parent="1" edge="1">
          <mxGeometry width="50" height="50" relative="1" as="geometry">
            <mxPoint x="81" y="155" as="sourcePoint" />
            <mxPoint x="101" y="155" as="targetPoint" />
          </mxGeometry>
        </mxCell>
        <mxCell id="72sK_H_ywsmvFICcp4cR-33" value="" style="endArrow=none;html=1;rounded=0;startArrow=oval;startFill=0;" parent="1" edge="1">
          <mxGeometry width="50" height="50" relative="1" as="geometry">
            <mxPoint x="81" y="145" as="sourcePoint" />
            <mxPoint x="101" y="145" as="targetPoint" />
          </mxGeometry>
        </mxCell>
        <mxCell id="72sK_H_ywsmvFICcp4cR-34" value="" style="endArrow=none;html=1;rounded=0;startArrow=oval;startFill=0;" parent="1" edge="1">
          <mxGeometry width="50" height="50" relative="1" as="geometry">
            <mxPoint x="81" y="134.88" as="sourcePoint" />
            <mxPoint x="101" y="134.88" as="targetPoint" />
          </mxGeometry>
        </mxCell>
        <mxCell id="72sK_H_ywsmvFICcp4cR-35" value="indirizzo" style="text;html=1;strokeColor=none;fillColor=none;align=center;verticalAlign=middle;whiteSpace=wrap;rounded=0;imageAspect=1;fontSize=10;" parent="1" vertex="1">
          <mxGeometry x="41" y="130" width="30" height="10" as="geometry" />
        </mxCell>
        <mxCell id="72sK_H_ywsmvFICcp4cR-36" value="telefono" style="text;html=1;strokeColor=none;fillColor=none;align=center;verticalAlign=middle;whiteSpace=wrap;rounded=0;imageAspect=1;fontSize=10;" parent="1" vertex="1">
          <mxGeometry x="36" y="142.5" width="40" height="5" as="geometry" />
        </mxCell>
        <mxCell id="72sK_H_ywsmvFICcp4cR-37" value="email" style="text;html=1;strokeColor=none;fillColor=none;align=center;verticalAlign=middle;whiteSpace=wrap;rounded=0;imageAspect=1;fontSize=10;" parent="1" vertex="1">
          <mxGeometry x="46" y="147.5" width="30" height="10" as="geometry" />
        </mxCell>
        <mxCell id="72sK_H_ywsmvFICcp4cR-38" value="" style="endArrow=none;html=1;rounded=0;startArrow=oval;startFill=1;" parent="1" edge="1">
          <mxGeometry width="50" height="50" relative="1" as="geometry">
            <mxPoint x="81" y="308.38" as="sourcePoint" />
            <mxPoint x="101" y="308.38" as="targetPoint" />
          </mxGeometry>
        </mxCell>
        <mxCell id="72sK_H_ywsmvFICcp4cR-39" value="ID" style="text;html=1;strokeColor=none;fillColor=none;align=center;verticalAlign=middle;whiteSpace=wrap;rounded=0;imageAspect=1;fontSize=10;" parent="1" vertex="1">
          <mxGeometry x="51" y="299.38" width="30" height="18.75" as="geometry" />
        </mxCell>
        <mxCell id="72sK_H_ywsmvFICcp4cR-40" value="" style="endArrow=none;html=1;rounded=0;startArrow=oval;startFill=0;" parent="1" edge="1">
          <mxGeometry width="50" height="50" relative="1" as="geometry">
            <mxPoint x="81" y="325.54999999999995" as="sourcePoint" />
            <mxPoint x="101" y="325.54999999999995" as="targetPoint" />
          </mxGeometry>
        </mxCell>
        <mxCell id="72sK_H_ywsmvFICcp4cR-41" value="indirizzo" style="text;html=1;strokeColor=none;fillColor=none;align=center;verticalAlign=middle;whiteSpace=wrap;rounded=0;imageAspect=1;fontSize=10;" parent="1" vertex="1">
          <mxGeometry x="36" y="323.13" width="40" height="5" as="geometry" />
        </mxCell>
        <mxCell id="72sK_H_ywsmvFICcp4cR-42" value="" style="endArrow=oval;html=1;rounded=0;startArrow=none;startFill=0;endFill=1;" parent="1" edge="1">
          <mxGeometry width="50" height="50" relative="1" as="geometry">
            <mxPoint x="440" y="294.89" as="sourcePoint" />
            <mxPoint x="460" y="294.89" as="targetPoint" />
          </mxGeometry>
        </mxCell>
        <mxCell id="72sK_H_ywsmvFICcp4cR-43" value="SKU" style="text;html=1;strokeColor=none;fillColor=none;align=center;verticalAlign=middle;whiteSpace=wrap;rounded=0;imageAspect=1;fontSize=10;" parent="1" vertex="1">
          <mxGeometry x="466" y="290" width="30" height="10" as="geometry" />
        </mxCell>
        <mxCell id="72sK_H_ywsmvFICcp4cR-44" value="" style="endArrow=oval;html=1;rounded=0;startArrow=none;startFill=0;endFill=0;" parent="1" edge="1">
          <mxGeometry width="50" height="50" relative="1" as="geometry">
            <mxPoint x="440" y="325" as="sourcePoint" />
            <mxPoint x="460" y="325" as="targetPoint" />
            <Array as="points">
              <mxPoint x="450" y="325" />
            </Array>
          </mxGeometry>
        </mxCell>
        <mxCell id="72sK_H_ywsmvFICcp4cR-45" value="" style="endArrow=oval;html=1;rounded=0;startArrow=none;startFill=0;endFill=0;" parent="1" edge="1">
          <mxGeometry width="50" height="50" relative="1" as="geometry">
            <mxPoint x="440" y="314.89" as="sourcePoint" />
            <mxPoint x="460" y="314.89" as="targetPoint" />
          </mxGeometry>
        </mxCell>
        <mxCell id="72sK_H_ywsmvFICcp4cR-46" value="" style="endArrow=oval;html=1;rounded=0;startArrow=none;startFill=0;endFill=0;" parent="1" edge="1">
          <mxGeometry width="50" height="50" relative="1" as="geometry">
            <mxPoint x="440" y="304.89" as="sourcePoint" />
            <mxPoint x="460" y="304.89" as="targetPoint" />
          </mxGeometry>
        </mxCell>
        <mxCell id="72sK_H_ywsmvFICcp4cR-47" value="nome" style="text;html=1;strokeColor=none;fillColor=none;align=center;verticalAlign=middle;whiteSpace=wrap;rounded=0;imageAspect=1;fontSize=10;" parent="1" vertex="1">
          <mxGeometry x="466" y="300" width="30" height="10" as="geometry" />
        </mxCell>
        <mxCell id="72sK_H_ywsmvFICcp4cR-48" value="prezzo" style="text;html=1;strokeColor=none;fillColor=none;align=center;verticalAlign=middle;whiteSpace=wrap;rounded=0;imageAspect=1;fontSize=10;" parent="1" vertex="1">
          <mxGeometry x="461" y="312.5" width="40" height="5" as="geometry" />
        </mxCell>
        <mxCell id="72sK_H_ywsmvFICcp4cR-49" value="descrizione" style="text;html=1;strokeColor=none;fillColor=none;align=center;verticalAlign=middle;whiteSpace=wrap;rounded=0;imageAspect=1;fontSize=10;" parent="1" vertex="1">
          <mxGeometry x="476" y="320" width="30" height="10" as="geometry" />
        </mxCell>
        <mxCell id="72sK_H_ywsmvFICcp4cR-50" value="" style="endArrow=oval;html=1;rounded=0;startArrow=none;startFill=0;endFill=1;" parent="1" edge="1">
          <mxGeometry width="50" height="50" relative="1" as="geometry">
            <mxPoint x="711" y="296.14" as="sourcePoint" />
            <mxPoint x="731" y="296.14" as="targetPoint" />
          </mxGeometry>
        </mxCell>
        <mxCell id="72sK_H_ywsmvFICcp4cR-51" value="codice" style="text;html=1;strokeColor=none;fillColor=none;align=center;verticalAlign=middle;whiteSpace=wrap;rounded=0;imageAspect=1;fontSize=10;" parent="1" vertex="1">
          <mxGeometry x="737" y="291.25" width="30" height="10" as="geometry" />
        </mxCell>
        <mxCell id="72sK_H_ywsmvFICcp4cR-52" value="" style="endArrow=oval;html=1;rounded=0;startArrow=none;startFill=0;endFill=0;" parent="1" edge="1">
          <mxGeometry width="50" height="50" relative="1" as="geometry">
            <mxPoint x="711" y="306.14" as="sourcePoint" />
            <mxPoint x="731" y="306.14" as="targetPoint" />
          </mxGeometry>
        </mxCell>
        <mxCell id="72sK_H_ywsmvFICcp4cR-53" value="data" style="text;html=1;strokeColor=none;fillColor=none;align=center;verticalAlign=middle;whiteSpace=wrap;rounded=0;imageAspect=1;fontSize=10;" parent="1" vertex="1">
          <mxGeometry x="737" y="301.25" width="30" height="10" as="geometry" />
        </mxCell>
        <mxCell id="72sK_H_ywsmvFICcp4cR-57" value="&lt;font style=&quot;font-size: 10px;&quot;&gt;nome&lt;/font&gt;" style="text;html=1;strokeColor=none;fillColor=none;align=center;verticalAlign=middle;whiteSpace=wrap;rounded=0;" parent="1" vertex="1">
          <mxGeometry x="51" y="155" width="20" height="17.5" as="geometry" />
        </mxCell>
        <mxCell id="72sK_H_ywsmvFICcp4cR-62" value="" style="endArrow=none;html=1;rounded=0;startArrow=oval;startFill=0;" parent="1" edge="1">
          <mxGeometry width="50" height="50" relative="1" as="geometry">
            <mxPoint x="81" y="165" as="sourcePoint" />
            <mxPoint x="101" y="165" as="targetPoint" />
          </mxGeometry>
        </mxCell>
        <mxCell id="72sK_H_ywsmvFICcp4cR-63" value="" style="endArrow=none;html=1;rounded=0;startArrow=oval;startFill=1;entryX=0.5;entryY=0;entryDx=0;entryDy=0;" parent="1" target="72sK_H_ywsmvFICcp4cR-7" edge="1">
          <mxGeometry width="50" height="50" relative="1" as="geometry">
            <mxPoint x="390" y="110" as="sourcePoint" />
            <mxPoint x="365" y="125" as="targetPoint" />
          </mxGeometry>
        </mxCell>
        <mxCell id="72sK_H_ywsmvFICcp4cR-64" value="" style="endArrow=none;html=1;rounded=0;startArrow=oval;startFill=0;" parent="1" edge="1">
          <mxGeometry width="50" height="50" relative="1" as="geometry">
            <mxPoint x="435" y="115" as="sourcePoint" />
            <mxPoint x="435" y="125" as="targetPoint" />
          </mxGeometry>
        </mxCell>
        <mxCell id="72sK_H_ywsmvFICcp4cR-65" value="dataAggiuntaProd" style="text;html=1;strokeColor=none;fillColor=none;align=center;verticalAlign=middle;whiteSpace=wrap;rounded=0;imageAspect=1;fontSize=10;" parent="1" vertex="1">
          <mxGeometry x="384" y="90" width="30" height="10" as="geometry" />
        </mxCell>
        <mxCell id="72sK_H_ywsmvFICcp4cR-66" value="quantita" style="text;html=1;strokeColor=none;fillColor=none;align=center;verticalAlign=middle;whiteSpace=wrap;rounded=0;imageAspect=1;fontSize=10;" parent="1" vertex="1">
          <mxGeometry x="430" y="100" width="30" height="10" as="geometry" />
        </mxCell>
        <mxCell id="72sK_H_ywsmvFICcp4cR-67" style="edgeStyle=orthogonalEdgeStyle;rounded=0;orthogonalLoop=1;jettySize=auto;html=1;exitX=0.5;exitY=0;exitDx=0;exitDy=0;entryX=0.5;entryY=1;entryDx=0;entryDy=0;endArrow=none;endFill=0;" parent="1" target="72sK_H_ywsmvFICcp4cR-69" edge="1">
          <mxGeometry relative="1" as="geometry">
            <mxPoint x="661" y="460" as="sourcePoint" />
            <Array as="points">
              <mxPoint x="661" y="440" />
              <mxPoint x="661" y="440" />
            </Array>
          </mxGeometry>
        </mxCell>
        <mxCell id="72sK_H_ywsmvFICcp4cR-68" style="edgeStyle=orthogonalEdgeStyle;rounded=0;orthogonalLoop=1;jettySize=auto;html=1;exitX=0.5;exitY=1;exitDx=0;exitDy=0;entryX=0.5;entryY=0;entryDx=0;entryDy=0;endArrow=none;endFill=0;" parent="1" target="72sK_H_ywsmvFICcp4cR-69" edge="1">
          <mxGeometry relative="1" as="geometry">
            <mxPoint x="661" y="340" as="sourcePoint" />
          </mxGeometry>
        </mxCell>
        <mxCell id="72sK_H_ywsmvFICcp4cR-69" value="effettuato" style="rhombus;whiteSpace=wrap;html=1;" parent="1" vertex="1">
          <mxGeometry x="620" y="372.5" width="80" height="47.5" as="geometry" />
        </mxCell>
        <mxCell id="72sK_H_ywsmvFICcp4cR-70" value="Pagamento" style="rounded=0;whiteSpace=wrap;html=1;" parent="1" vertex="1">
          <mxGeometry x="611" y="460" width="100" height="50" as="geometry" />
        </mxCell>
        <mxCell id="72sK_H_ywsmvFICcp4cR-71" value="" style="endArrow=oval;html=1;rounded=0;startArrow=none;startFill=0;endFill=1;" parent="1" edge="1">
          <mxGeometry width="50" height="50" relative="1" as="geometry">
            <mxPoint x="711" y="464.89" as="sourcePoint" />
            <mxPoint x="731" y="464.89" as="targetPoint" />
          </mxGeometry>
        </mxCell>
        <mxCell id="72sK_H_ywsmvFICcp4cR-72" value="ID" style="text;html=1;strokeColor=none;fillColor=none;align=center;verticalAlign=middle;whiteSpace=wrap;rounded=0;imageAspect=1;fontSize=10;" parent="1" vertex="1">
          <mxGeometry x="731.5" y="460" width="30" height="10" as="geometry" />
        </mxCell>
        <mxCell id="72sK_H_ywsmvFICcp4cR-73" value="" style="endArrow=oval;html=1;rounded=0;startArrow=none;startFill=0;endFill=0;" parent="1" edge="1">
          <mxGeometry width="50" height="50" relative="1" as="geometry">
            <mxPoint x="711" y="474.89" as="sourcePoint" />
            <mxPoint x="731" y="474.89" as="targetPoint" />
          </mxGeometry>
        </mxCell>
        <mxCell id="72sK_H_ywsmvFICcp4cR-74" value="prezzoSpedizione" style="text;html=1;strokeColor=none;fillColor=none;align=center;verticalAlign=middle;whiteSpace=wrap;rounded=0;imageAspect=1;fontSize=10;" parent="1" vertex="1">
          <mxGeometry x="761.5" y="470" width="30" height="10" as="geometry" />
        </mxCell>
        <mxCell id="72sK_H_ywsmvFICcp4cR-75" value="" style="endArrow=oval;html=1;rounded=0;startArrow=none;startFill=0;endFill=0;" parent="1" edge="1">
          <mxGeometry width="50" height="50" relative="1" as="geometry">
            <mxPoint x="711" y="484.89" as="sourcePoint" />
            <mxPoint x="731" y="484.89" as="targetPoint" />
          </mxGeometry>
        </mxCell>
        <mxCell id="72sK_H_ywsmvFICcp4cR-76" value="prezzoTotale" style="text;html=1;strokeColor=none;fillColor=none;align=center;verticalAlign=middle;whiteSpace=wrap;rounded=0;imageAspect=1;fontSize=10;" parent="1" vertex="1">
          <mxGeometry x="751.5" y="480" width="30" height="10" as="geometry" />
        </mxCell>
        <mxCell id="72sK_H_ywsmvFICcp4cR-77" value="" style="endArrow=oval;html=1;rounded=0;startArrow=none;startFill=0;endFill=1;" parent="1" edge="1">
          <mxGeometry width="50" height="50" relative="1" as="geometry">
            <mxPoint x="711" y="127.38999999999999" as="sourcePoint" />
            <mxPoint x="731" y="127.38999999999999" as="targetPoint" />
          </mxGeometry>
        </mxCell>
        <mxCell id="72sK_H_ywsmvFICcp4cR-78" value="ID" style="text;html=1;strokeColor=none;fillColor=none;align=center;verticalAlign=middle;whiteSpace=wrap;rounded=0;imageAspect=1;fontSize=10;" parent="1" vertex="1">
          <mxGeometry x="731.5" y="122.5" width="30" height="10" as="geometry" />
        </mxCell>
        <mxCell id="72sK_H_ywsmvFICcp4cR-79" value="" style="endArrow=oval;html=1;rounded=0;startArrow=none;startFill=0;endFill=0;" parent="1" edge="1">
          <mxGeometry width="50" height="50" relative="1" as="geometry">
            <mxPoint x="711" y="137.39" as="sourcePoint" />
            <mxPoint x="731" y="137.39" as="targetPoint" />
          </mxGeometry>
        </mxCell>
        <mxCell id="72sK_H_ywsmvFICcp4cR-80" value="dataSpedizione" style="text;html=1;strokeColor=none;fillColor=none;align=center;verticalAlign=middle;whiteSpace=wrap;rounded=0;imageAspect=1;fontSize=10;" parent="1" vertex="1">
          <mxGeometry x="761.5" y="132.5" width="30" height="10" as="geometry" />
        </mxCell>
        <mxCell id="72sK_H_ywsmvFICcp4cR-81" value="" style="endArrow=oval;html=1;rounded=0;startArrow=none;startFill=0;endFill=0;" parent="1" edge="1">
          <mxGeometry width="50" height="50" relative="1" as="geometry">
            <mxPoint x="711" y="147.39" as="sourcePoint" />
            <mxPoint x="731" y="147.39" as="targetPoint" />
          </mxGeometry>
        </mxCell>
        <mxCell id="72sK_H_ywsmvFICcp4cR-82" value="dataConsegna" style="text;html=1;strokeColor=none;fillColor=none;align=center;verticalAlign=middle;whiteSpace=wrap;rounded=0;imageAspect=1;fontSize=10;" parent="1" vertex="1">
          <mxGeometry x="761.5" y="142.5" width="30" height="10" as="geometry" />
        </mxCell>
        <mxCell id="72sK_H_ywsmvFICcp4cR-83" value="" style="endArrow=oval;html=1;rounded=0;startArrow=none;startFill=0;endFill=0;" parent="1" edge="1">
          <mxGeometry width="50" height="50" relative="1" as="geometry">
            <mxPoint x="711" y="157.39" as="sourcePoint" />
            <mxPoint x="731" y="157.39" as="targetPoint" />
          </mxGeometry>
        </mxCell>
        <mxCell id="72sK_H_ywsmvFICcp4cR-84" value="peso" style="text;html=1;strokeColor=none;fillColor=none;align=center;verticalAlign=middle;whiteSpace=wrap;rounded=0;imageAspect=1;fontSize=10;" parent="1" vertex="1">
          <mxGeometry x="737" y="152.5" width="30" height="10" as="geometry" />
        </mxCell>
        <mxCell id="72sK_H_ywsmvFICcp4cR-85" value="(1,N)" style="text;html=1;strokeColor=none;fillColor=none;align=center;verticalAlign=middle;whiteSpace=wrap;rounded=0;" parent="1" vertex="1">
          <mxGeometry x="193.5" y="312.5" width="43" height="30" as="geometry" />
        </mxCell>
        <mxCell id="72sK_H_ywsmvFICcp4cR-86" value="(0,N)" style="text;html=1;strokeColor=none;fillColor=none;align=center;verticalAlign=middle;whiteSpace=wrap;rounded=0;" parent="1" vertex="1">
          <mxGeometry x="297" y="312.5" width="43" height="30" as="geometry" />
        </mxCell>
        <mxCell id="72sK_H_ywsmvFICcp4cR-89" value="(0,N)" style="text;html=1;strokeColor=none;fillColor=none;align=center;verticalAlign=middle;whiteSpace=wrap;rounded=0;" parent="1" vertex="1">
          <mxGeometry x="396.5" y="267.5" width="26" height="18.75" as="geometry" />
        </mxCell>
        <mxCell id="72sK_H_ywsmvFICcp4cR-90" value="(0,N)" style="text;html=1;strokeColor=none;fillColor=none;align=center;verticalAlign=middle;whiteSpace=wrap;rounded=0;" parent="1" vertex="1">
          <mxGeometry x="401" y="177.5" width="26" height="18.75" as="geometry" />
        </mxCell>
        <mxCell id="72sK_H_ywsmvFICcp4cR-91" value="(1,1)" style="text;html=1;strokeColor=none;fillColor=none;align=center;verticalAlign=middle;whiteSpace=wrap;rounded=0;" parent="1" vertex="1">
          <mxGeometry x="485.5" y="182.5" width="26" height="18.75" as="geometry" />
        </mxCell>
        <mxCell id="72sK_H_ywsmvFICcp4cR-92" value="(1,1)" style="text;html=1;strokeColor=none;fillColor=none;align=center;verticalAlign=middle;whiteSpace=wrap;rounded=0;" parent="1" vertex="1">
          <mxGeometry x="561.5" y="401.25" width="26" height="18.75" as="geometry" />
        </mxCell>
        <mxCell id="72sK_H_ywsmvFICcp4cR-93" value="(1,1)" style="text;html=1;strokeColor=none;fillColor=none;align=center;verticalAlign=middle;whiteSpace=wrap;rounded=0;" parent="1" vertex="1">
          <mxGeometry x="671.5" y="430" width="26" height="18.75" as="geometry" />
        </mxCell>
        <mxCell id="72sK_H_ywsmvFICcp4cR-94" value="(1,1)" style="text;html=1;strokeColor=none;fillColor=none;align=center;verticalAlign=middle;whiteSpace=wrap;rounded=0;" parent="1" vertex="1">
          <mxGeometry x="671.5" y="350" width="26" height="18.75" as="geometry" />
        </mxCell>
        <mxCell id="72sK_H_ywsmvFICcp4cR-95" value="(1,1)" style="text;html=1;strokeColor=none;fillColor=none;align=center;verticalAlign=middle;whiteSpace=wrap;rounded=0;" parent="1" vertex="1">
          <mxGeometry x="671.5" y="267.5" width="26" height="18.75" as="geometry" />
        </mxCell>
        <mxCell id="72sK_H_ywsmvFICcp4cR-96" value="(1,N)" style="text;html=1;strokeColor=none;fillColor=none;align=center;verticalAlign=middle;whiteSpace=wrap;rounded=0;" parent="1" vertex="1">
          <mxGeometry x="671.5" y="173.75" width="26" height="18.75" as="geometry" />
        </mxCell>
        <mxCell id="72sK_H_ywsmvFICcp4cR-97" value="(1,N)" style="text;html=1;strokeColor=none;fillColor=none;align=center;verticalAlign=middle;whiteSpace=wrap;rounded=0;" parent="1" vertex="1">
          <mxGeometry x="422.5" y="20" width="26" height="18.75" as="geometry" />
        </mxCell>
        <mxCell id="72sK_H_ywsmvFICcp4cR-98" value="(0,N)" style="text;html=1;strokeColor=none;fillColor=none;align=center;verticalAlign=middle;whiteSpace=wrap;rounded=0;" parent="1" vertex="1">
          <mxGeometry x="325.5" y="20" width="26" height="18.75" as="geometry" />
        </mxCell>
        <mxCell id="72sK_H_ywsmvFICcp4cR-99" value="posseduto" style="rhombus;whiteSpace=wrap;html=1;" parent="1" vertex="1">
          <mxGeometry x="230" y="121.25" width="80" height="47.5" as="geometry" />
        </mxCell>
        <mxCell id="72sK_H_ywsmvFICcp4cR-100" value="" style="endArrow=none;html=1;rounded=0;exitX=1;exitY=0.5;exitDx=0;exitDy=0;entryX=0;entryY=0.5;entryDx=0;entryDy=0;" parent="1" source="72sK_H_ywsmvFICcp4cR-99" edge="1">
          <mxGeometry width="50" height="50" relative="1" as="geometry">
            <mxPoint x="331" y="50" as="sourcePoint" />
            <mxPoint x="340" y="145" as="targetPoint" />
          </mxGeometry>
        </mxCell>
        <mxCell id="72sK_H_ywsmvFICcp4cR-101" value="" style="endArrow=none;html=1;rounded=0;exitX=1;exitY=0.5;exitDx=0;exitDy=0;entryX=0;entryY=0.5;entryDx=0;entryDy=0;" parent="1" target="72sK_H_ywsmvFICcp4cR-99" edge="1">
          <mxGeometry width="50" height="50" relative="1" as="geometry">
            <mxPoint x="201" y="145" as="sourcePoint" />
            <mxPoint x="261" y="40" as="targetPoint" />
          </mxGeometry>
        </mxCell>
        <mxCell id="72sK_H_ywsmvFICcp4cR-102" value="(1,1)" style="text;html=1;strokeColor=none;fillColor=none;align=center;verticalAlign=middle;whiteSpace=wrap;rounded=0;" parent="1" vertex="1">
          <mxGeometry x="193.5" y="120" width="43" height="30" as="geometry" />
        </mxCell>
        <mxCell id="72sK_H_ywsmvFICcp4cR-103" value="(1,1)" style="text;html=1;strokeColor=none;fillColor=none;align=center;verticalAlign=middle;whiteSpace=wrap;rounded=0;" parent="1" vertex="1">
          <mxGeometry x="297" y="120" width="43" height="30" as="geometry" />
        </mxCell>
        <mxCell id="72sK_H_ywsmvFICcp4cR-104" value="" style="endArrow=oval;html=1;rounded=0;startArrow=none;startFill=0;endFill=0;" parent="1" edge="1">
          <mxGeometry width="50" height="50" relative="1" as="geometry">
            <mxPoint x="711" y="494.89" as="sourcePoint" />
            <mxPoint x="731" y="494.89" as="targetPoint" />
          </mxGeometry>
        </mxCell>
        <mxCell id="72sK_H_ywsmvFICcp4cR-105" value="metodo" style="text;html=1;strokeColor=none;fillColor=none;align=center;verticalAlign=middle;whiteSpace=wrap;rounded=0;imageAspect=1;fontSize=10;" parent="1" vertex="1">
          <mxGeometry x="737" y="490" width="30" height="10" as="geometry" />
        </mxCell>
        <mxCell id="72sK_H_ywsmvFICcp4cR-126" value="&lt;font style=&quot;font-size: 10px;&quot;&gt;azienda&lt;/font&gt;" style="text;html=1;align=center;verticalAlign=middle;resizable=0;points=[];autosize=1;strokeColor=none;fillColor=none;" parent="1" vertex="1">
          <mxGeometry x="120" y="182.5" width="60" height="30" as="geometry" />
        </mxCell>
        <mxCell id="72sK_H_ywsmvFICcp4cR-127" value="&lt;font style=&quot;font-size: 10px;&quot;&gt;(0,1)&lt;/font&gt;" style="text;html=1;align=center;verticalAlign=middle;resizable=0;points=[];autosize=1;strokeColor=none;fillColor=none;" parent="1" vertex="1">
          <mxGeometry x="140" y="162.5" width="40" height="30" as="geometry" />
        </mxCell>
        <mxCell id="72sK_H_ywsmvFICcp4cR-129" value="" style="endArrow=none;html=1;rounded=0;startArrow=oval;startFill=0;" parent="1" edge="1">
          <mxGeometry width="50" height="50" relative="1" as="geometry">
            <mxPoint x="175" y="190" as="sourcePoint" />
            <mxPoint x="175" y="170" as="targetPoint" />
          </mxGeometry>
        </mxCell>
        <mxCell id="72sK_H_ywsmvFICcp4cR-130" value="&lt;font style=&quot;font-size: 10px;&quot;&gt;p. iva&lt;/font&gt;" style="text;html=1;align=center;verticalAlign=middle;resizable=0;points=[];autosize=1;strokeColor=none;fillColor=none;" parent="1" vertex="1">
          <mxGeometry x="165" y="177.5" width="50" height="30" as="geometry" />
        </mxCell>
        <mxCell id="72sK_H_ywsmvFICcp4cR-131" value="&lt;font style=&quot;font-size: 10px;&quot;&gt;(0,1)&lt;/font&gt;" style="text;html=1;align=center;verticalAlign=middle;resizable=0;points=[];autosize=1;strokeColor=none;fillColor=none;" parent="1" vertex="1">
          <mxGeometry x="170" y="162.5" width="40" height="30" as="geometry" />
        </mxCell>
        <mxCell id="72sK_H_ywsmvFICcp4cR-132" value="" style="endArrow=oval;html=1;rounded=0;startArrow=none;startFill=0;endFill=0;" parent="1" edge="1">
          <mxGeometry width="50" height="50" relative="1" as="geometry">
            <mxPoint x="440" y="335" as="sourcePoint" />
            <mxPoint x="460" y="335" as="targetPoint" />
            <Array as="points">
              <mxPoint x="450" y="335" />
            </Array>
          </mxGeometry>
        </mxCell>
        <mxCell id="72sK_H_ywsmvFICcp4cR-133" value="&lt;font style=&quot;font-size: 10px;&quot;&gt;tipo&amp;nbsp;&lt;/font&gt;" style="text;html=1;strokeColor=none;fillColor=none;align=center;verticalAlign=middle;whiteSpace=wrap;rounded=0;imageAspect=1;fontSize=10;" parent="1" vertex="1">
          <mxGeometry x="466" y="330" width="23" height="10" as="geometry" />
        </mxCell>
        <mxCell id="mUkMTH9uVgXKlmUPP3fK-2" value="" style="endArrow=none;html=1;rounded=0;startArrow=oval;startFill=0;" parent="1" edge="1">
          <mxGeometry width="50" height="50" relative="1" as="geometry">
            <mxPoint x="105" y="190.63" as="sourcePoint" />
            <mxPoint x="105" y="170.63" as="targetPoint" />
          </mxGeometry>
        </mxCell>
        <mxCell id="mUkMTH9uVgXKlmUPP3fK-3" value="&lt;font style=&quot;font-size: 10px;&quot;&gt;CF&lt;br&gt;&lt;/font&gt;" style="text;html=1;align=center;verticalAlign=middle;resizable=0;points=[];autosize=1;strokeColor=none;fillColor=none;" parent="1" vertex="1">
          <mxGeometry x="86" y="183.13" width="40" height="30" as="geometry" />
        </mxCell>
        <mxCell id="mUkMTH9uVgXKlmUPP3fK-5" value="" style="endArrow=none;html=1;rounded=0;startArrow=oval;startFill=0;entryX=0.5;entryY=1;entryDx=0;entryDy=0;" parent="1" target="72sK_H_ywsmvFICcp4cR-2" edge="1">
          <mxGeometry width="50" height="50" relative="1" as="geometry">
            <mxPoint x="151" y="190" as="sourcePoint" />
            <mxPoint x="127.5" y="170" as="targetPoint" />
          </mxGeometry>
        </mxCell>
        <mxCell id="mUkMTH9uVgXKlmUPP3fK-6" value="&lt;font style=&quot;font-size: 10px;&quot;&gt;(0,1)&lt;/font&gt;" style="text;html=1;align=center;verticalAlign=middle;resizable=0;points=[];autosize=1;strokeColor=none;fillColor=none;" parent="1" vertex="1">
          <mxGeometry x="100" y="162.5" width="40" height="30" as="geometry" />
        </mxCell>
        <mxCell id="XNMAZftijf8iprkytA1I-2" value="" style="endArrow=none;html=1;rounded=0;startArrow=oval;startFill=1;" parent="1" edge="1">
          <mxGeometry width="50" height="50" relative="1" as="geometry">
            <mxPoint x="350" y="115" as="sourcePoint" />
            <mxPoint x="350" y="125" as="targetPoint" />
          </mxGeometry>
        </mxCell>
        <mxCell id="XNMAZftijf8iprkytA1I-3" value="ID" style="text;html=1;align=center;verticalAlign=middle;resizable=0;points=[];autosize=1;strokeColor=none;fillColor=none;" parent="1" vertex="1">
          <mxGeometry x="327.5" y="88.75" width="40" height="30" as="geometry" />
        </mxCell>
        <mxCell id="XNMAZftijf8iprkytA1I-4" value="" style="endArrow=oval;html=1;rounded=0;startArrow=none;startFill=0;endFill=0;" parent="1" edge="1">
          <mxGeometry width="50" height="50" relative="1" as="geometry">
            <mxPoint x="711" y="504.89" as="sourcePoint" />
            <mxPoint x="731" y="504.89" as="targetPoint" />
          </mxGeometry>
        </mxCell>
        <mxCell id="XNMAZftijf8iprkytA1I-5" value="data" style="text;html=1;strokeColor=none;fillColor=none;align=center;verticalAlign=middle;whiteSpace=wrap;rounded=0;imageAspect=1;fontSize=10;" parent="1" vertex="1">
          <mxGeometry x="731.5" y="500" width="30" height="10" as="geometry" />
        </mxCell>
      </root>
    </mxGraphModel>
  </diagram>
</mxfile>
